M48
METRIC,LZ,000.000
;FILE_FORMAT=3:3
;TYPE=PLATED
;Layer: PTH_Through
;EasyEDA v6.5.23, 2023-06-11 23:43:22
;2b95388b78af4998b8b99e231a31c8e7,07531b1ef0a74d2492736d9a14bc6988,10
;Gerber Generator version 0.2
;Holesize 1 = 0.800 mm
T01C0.800
;Holesize 2 = 0.901 mm
T02C0.901
;Holesize 3 = 0.915 mm
T03C0.915
;Holesize 4 = 1.000 mm
T04C1.000
;Holesize 5 = 1.200 mm
T05C1.200
%
G05
G90
T01
X125750Y018891
X148450Y018910
X125750Y005110
X148450Y005129
T02
X080263Y-026796
X082803Y-026796
T03
X068706Y041784
X071246Y041784
X073786Y041784
X076326Y041784
X025399Y-000888
X027939Y-000888
X030479Y-000888
X033019Y-000888
X035559Y-000888
X048259Y-000888
X045719Y-000888
X043179Y-000888
X040639Y-000888
X038099Y-000888
X060959Y-000888
X058419Y-000888
X055879Y-000888
X053339Y-000888
X050799Y-000888
X050545Y024512
X053085Y024512
X055625Y024512
X058165Y024512
X060705Y024512
X037845Y024512
X040385Y024512
X042925Y024512
X045465Y024512
X048005Y024512
X035305Y024512
X032765Y024512
X030225Y024512
X027685Y024512
X025145Y024512
X085343Y-026796
X087883Y-026796
X090423Y-026796
X035559Y036450
X041909Y036450
X075183Y036196
X068833Y036196
X034416Y-019684
X040766Y-019684
X081470Y-019621
X087820Y-019621
X120427Y-005333
X124427Y-005333
X054260Y-019684
X058260Y-019684
X115315Y-009778
X108965Y-009778
X037211Y042164
X039751Y042164
X042291Y042164
X044831Y042164
X110998Y-023876
X113538Y-023876
X116078Y-023876
X118618Y-023876
X121158Y-023876
X123698Y-023876
X039750Y042165
T04
X098932Y020956
X098932Y018416
X098932Y015876
X098932Y013336
X098932Y010796
X098932Y008256
X098932Y005716
X098932Y003176
X034416Y-026415
X036956Y-026415
X039496Y-026415
X042036Y-026415
X044576Y-026415
X047116Y-026415
X049656Y-026415
X052196Y-026415
X030603Y011177G85X030609Y011177
X030603Y013717G85X030609Y013717
X014601Y-018668G85X014607Y-018668
X014601Y-016128G85X014607Y-016128
X014602Y037338G85X014608Y037338
X014602Y039878G85X014608Y039878
X109471Y050166G85X109476Y050166
X109470Y033020G85X109476Y033020
X148968Y050166G85X148974Y050166
X148968Y033020G85X148974Y033020
T05
X144423Y-025537
X144423Y-020537
M30
