G04 Layer: BottomLayer*
G04 EasyEDA v6.5.23, 2023-06-11 23:43:22*
G04 2b95388b78af4998b8b99e231a31c8e7,07531b1ef0a74d2492736d9a14bc6988,10*
G04 Gerber Generator version 0.2*
G04 Scale: 100 percent, Rotated: No, Reflected: No *
G04 Dimensions in millimeters *
G04 leading zeros omitted , absolute positions ,4 integer and 5 decimal *
%FSLAX45Y45*%
%MOMM*%

%ADD10C,0.7500*%
%ADD11C,1.0000*%
%ADD12R,1.5240X1.5240*%
%ADD13C,1.5240*%
%ADD14C,1.7780*%
%ADD15R,1.5400X1.5400*%
%ADD16C,1.5400*%
%ADD17C,1.4000*%
%ADD18R,2.4000X2.4000*%
%ADD19R,3.0000X2.4000*%
%ADD20C,2.0000*%
%ADD21C,1.7000*%
%ADD22R,1.7000X1.7000*%
%ADD23C,0.6100*%

%LPD*%
D10*
X2768498Y2451201D02*
G01*
X2768498Y2839872D01*
X1620469Y3987901D01*
X7632598Y4178401D02*
G01*
X8055767Y4178401D01*
X10134600Y2197100D01*
X10134600Y152400D01*
X9654268Y-239730D01*
X9893200Y1841599D02*
G01*
X8848194Y2886605D01*
X3711907Y2886605D01*
X3276500Y2451199D01*
X9893200Y1079599D02*
G01*
X8379818Y2592981D01*
X4180283Y2592981D01*
X4038500Y2451199D01*
X9893200Y1333599D02*
G01*
X8541285Y2685514D01*
X4018815Y2685514D01*
X3784500Y2451199D01*
X9893200Y1587599D02*
G01*
X8692390Y2788409D01*
X3867711Y2788409D01*
X3530500Y2451199D01*
X9893200Y571599D02*
G01*
X6426100Y571599D01*
X4546500Y2451199D01*
D11*
X10896498Y-977798D02*
G01*
X10896498Y-2184298D01*
X11099698Y-2387498D01*
X3555898Y3645001D02*
G01*
X3555898Y4102201D01*
X3670198Y4216501D01*
X3720998Y4216501D01*
X4190898Y3645001D02*
G01*
X4190898Y4000601D01*
X3974998Y4216501D01*
D10*
X7378598Y4178401D02*
G01*
X7236866Y4036667D01*
X4408832Y4036667D01*
X4228998Y4216501D01*
X7632598Y4178401D02*
G01*
X7503515Y4307484D01*
X4573983Y4307484D01*
X4482998Y4216501D01*
X3555898Y-88798D02*
G01*
X2640408Y-1004290D01*
X2640408Y-1416204D01*
X5425998Y-1968398D02*
G01*
X5425998Y-688898D01*
X4825898Y-88798D01*
X4571898Y-88798D02*
G01*
X4571898Y-2323998D01*
X4559198Y-2336698D01*
X3060598Y1117701D02*
G01*
X3809898Y368401D01*
X3809898Y-88798D01*
X5909205Y-2117270D02*
G01*
X6095898Y-1930577D01*
X6095898Y-88798D01*
X4711598Y-2641498D02*
G01*
X5076068Y-2277038D01*
X5749439Y-2277038D01*
X5909205Y-2117270D01*
X5909205Y-2117270D02*
G01*
X6031791Y-2239873D01*
X11861698Y-2387498D02*
G01*
X12031835Y-2217369D01*
X12031835Y-2098220D01*
X1460398Y3733901D02*
G01*
X1460398Y3113298D01*
X2515392Y2058311D01*
X6070498Y2451201D02*
G01*
X5677618Y2058311D01*
X5357401Y2058311D01*
X1460398Y3987901D02*
G01*
X1620469Y3987901D01*
D11*
X2768498Y1359001D02*
G01*
X2900560Y1359001D01*
D10*
X3060598Y1371701D02*
G01*
X2913260Y1371701D01*
X2900560Y1359001D01*
D11*
X2768498Y1359001D02*
G01*
X2768498Y2451201D01*
X1460398Y-1612798D02*
G01*
X1460398Y-139598D01*
X2768498Y1168501D01*
X2768498Y1359001D01*
D10*
X1460398Y-1866798D02*
G01*
X2317549Y-1866798D01*
X4063898Y-120449D01*
X4063898Y-88798D01*
X12442601Y-533298D02*
G01*
X12445898Y-1320698D01*
X11607698Y-2387498D01*
D11*
X8788298Y-2679598D02*
G01*
X8788298Y-2450998D01*
X8597798Y-2260498D01*
X8445398Y-2260498D01*
X8146999Y-1962099D01*
X8781999Y-1962099D02*
G01*
X8870899Y-1962099D01*
X9080398Y-2171598D01*
X9093098Y-2489098D01*
X9042298Y-2679598D01*
D10*
X5826000Y-1968398D02*
G01*
X5663689Y-2130709D01*
X4968389Y-2130709D01*
X4457598Y-2641498D01*
D11*
X4076598Y-1968398D02*
G01*
X4076598Y-2514498D01*
X3949598Y-2641498D01*
D10*
X3695598Y-2641498D02*
G01*
X3657498Y-2603398D01*
X3657498Y-711098D01*
D11*
X3441598Y-1968398D02*
G01*
X3441598Y-2641498D01*
D10*
X4228998Y4216501D02*
G01*
X4013098Y4432401D01*
X1648101Y4432401D01*
X1257198Y4140301D01*
X1282598Y2324201D01*
X2460401Y1178659D01*
X12369749Y-2387549D02*
G01*
X12090349Y-2666949D01*
X10960049Y-2666949D01*
X9861499Y-1403299D01*
X9861499Y-1123899D01*
X9702749Y-977849D01*
D11*
X10947298Y3302000D02*
G01*
X10502849Y2907334D01*
X10502849Y406450D01*
X11531549Y-622249D01*
X11531549Y-977849D01*
X11531549Y-977849D02*
G01*
X11531549Y-1672287D01*
X11360099Y-1873199D01*
X11353749Y-2387549D01*
D12*
G01*
X6870598Y4178401D03*
D13*
G01*
X7124598Y4178401D03*
G01*
X7378598Y4178401D03*
G01*
X7632598Y4178401D03*
D14*
G01*
X2539898Y-88798D03*
G01*
X2793898Y-88798D03*
G01*
X3047898Y-88798D03*
G01*
X3301898Y-88798D03*
G01*
X3555898Y-88798D03*
G01*
X4825898Y-88798D03*
G01*
X4571898Y-88798D03*
G01*
X4317898Y-88798D03*
G01*
X4063898Y-88798D03*
G01*
X3809898Y-88798D03*
G01*
X6095898Y-88798D03*
G01*
X5841898Y-88798D03*
G01*
X5587898Y-88798D03*
G01*
X5333898Y-88798D03*
G01*
X5079898Y-88798D03*
G01*
X5054498Y2451201D03*
G01*
X5308498Y2451201D03*
G01*
X5562498Y2451201D03*
G01*
X5816498Y2451201D03*
G01*
X6070498Y2451201D03*
G01*
X3784498Y2451201D03*
G01*
X4038498Y2451201D03*
G01*
X4292498Y2451201D03*
G01*
X4546498Y2451201D03*
G01*
X4800498Y2451201D03*
G01*
X3530498Y2451201D03*
G01*
X3276498Y2451201D03*
G01*
X3022498Y2451201D03*
G01*
X2768498Y2451201D03*
G01*
X2514498Y2451201D03*
D15*
G01*
X9893198Y2095601D03*
D16*
G01*
X9893198Y1841601D03*
G01*
X9893198Y1587601D03*
G01*
X9893198Y1333601D03*
G01*
X9893198Y1079601D03*
G01*
X9893198Y825601D03*
G01*
X9893198Y571601D03*
G01*
X9893198Y317601D03*
D17*
G01*
X8026298Y-2679598D03*
G01*
X8280298Y-2679598D03*
D13*
G01*
X8534298Y-2679598D03*
G01*
X8788298Y-2679598D03*
G01*
X9042298Y-2679598D03*
D18*
G01*
X12575006Y1889099D03*
G01*
X14845004Y1891004D03*
G01*
X12575006Y510997D03*
G01*
X14845004Y512902D03*
D15*
G01*
X3441598Y-2641498D03*
D16*
G01*
X3695598Y-2641498D03*
G01*
X3949598Y-2641498D03*
G01*
X4203598Y-2641498D03*
G01*
X4457598Y-2641498D03*
G01*
X4711598Y-2641498D03*
G01*
X4965598Y-2641498D03*
G01*
X5219598Y-2641498D03*
D19*
G01*
X14442287Y-2553690D03*
G01*
X14442287Y-2053691D03*
D13*
G01*
X3555898Y3645001D03*
G01*
X4190898Y3645001D03*
G01*
X7518298Y3619601D03*
G01*
X6883298Y3619601D03*
G01*
X3441598Y-1968398D03*
G01*
X4076598Y-1968398D03*
G01*
X8146999Y-1962099D03*
G01*
X8781999Y-1962099D03*
D20*
G01*
X12042698Y-533298D03*
G01*
X12442697Y-533298D03*
G01*
X5425998Y-1968398D03*
G01*
X5825997Y-1968398D03*
D13*
G01*
X11531498Y-977798D03*
G01*
X10896498Y-977798D03*
D21*
G01*
X3060598Y1117701D03*
D22*
G01*
X3060598Y1371701D03*
D21*
G01*
X1460398Y-1866798D03*
D22*
G01*
X1460398Y-1612798D03*
D12*
G01*
X3721100Y4216400D03*
D13*
G01*
X3975100Y4216400D03*
G01*
X4229100Y4216400D03*
G01*
X4483100Y4216400D03*
D21*
G01*
X1460500Y3733800D03*
D22*
G01*
X1460500Y3987800D03*
D20*
G01*
X11099800Y-2387600D03*
G01*
X11353800Y-2387600D03*
G01*
X11607800Y-2387600D03*
G01*
X11861800Y-2387600D03*
G01*
X12115800Y-2387600D03*
G01*
X12369800Y-2387600D03*
D12*
G01*
X3974998Y4216501D03*
D22*
G01*
X10947349Y5016550D03*
G01*
X10947298Y3302000D03*
G01*
X14897100Y5016601D03*
G01*
X14897100Y3302000D03*
D23*
G01*
X2460472Y1178712D03*
G01*
X9654260Y-239725D03*
G01*
X3657498Y-711098D03*
G01*
X2640406Y-1416202D03*
G01*
X4559198Y-2336698D03*
G01*
X9702698Y-977798D03*
G01*
X6031788Y-2239873D03*
G01*
X12031827Y-2098217D03*
G01*
X2515387Y2058314D03*
G01*
X5357393Y2058314D03*
M02*
