G04 Layer: TopLayer*
G04 EasyEDA v6.5.23, 2023-06-11 23:43:22*
G04 2b95388b78af4998b8b99e231a31c8e7,07531b1ef0a74d2492736d9a14bc6988,10*
G04 Gerber Generator version 0.2*
G04 Scale: 100 percent, Rotated: No, Reflected: No *
G04 Dimensions in millimeters *
G04 leading zeros omitted , absolute positions ,4 integer and 5 decimal *
%FSLAX45Y45*%
%MOMM*%

%ADD10C,0.2032*%
%ADD11C,1.0000*%
%ADD12C,0.7500*%
%ADD13R,2.4000X2.4000*%
%ADD14R,2.8000X2.8000*%
%ADD15R,1.5240X1.5240*%
%ADD16C,1.5240*%
%ADD17C,1.7780*%
%ADD18R,1.5400X1.5400*%
%ADD19C,1.5400*%
%ADD20C,1.4000*%
%ADD21R,3.0000X2.4000*%
%ADD22C,2.0000*%
%ADD23C,1.7000*%
%ADD24R,1.7000X1.7000*%
%ADD25C,0.6100*%
%ADD26C,0.0181*%

%LPD*%
D10*
X11741099Y-2953461D02*
G01*
X11741099Y-3048965D01*
X11741099Y-2953461D02*
G01*
X11800281Y-2953461D01*
X11741099Y-2998927D02*
G01*
X11777421Y-2998927D01*
X11884609Y-2985211D02*
G01*
X11884609Y-3048965D01*
X11884609Y-2998927D02*
G01*
X11875719Y-2989783D01*
X11866575Y-2985211D01*
X11852859Y-2985211D01*
X11843715Y-2989783D01*
X11834825Y-2998927D01*
X11830253Y-3012389D01*
X11830253Y-3021533D01*
X11834825Y-3035249D01*
X11843715Y-3044393D01*
X11852859Y-3048965D01*
X11866575Y-3048965D01*
X11875719Y-3044393D01*
X11884609Y-3035249D01*
X11969191Y-2998927D02*
G01*
X11960301Y-2989783D01*
X11951157Y-2985211D01*
X11937441Y-2985211D01*
X11928297Y-2989783D01*
X11919407Y-2998927D01*
X11914835Y-3012389D01*
X11914835Y-3021533D01*
X11919407Y-3035249D01*
X11928297Y-3044393D01*
X11937441Y-3048965D01*
X11951157Y-3048965D01*
X11960301Y-3044393D01*
X11969191Y-3035249D01*
X11999163Y-2985211D02*
G01*
X11999163Y-3030677D01*
X12003735Y-3044393D01*
X12012879Y-3048965D01*
X12026595Y-3048965D01*
X12035739Y-3044393D01*
X12049201Y-3030677D01*
X12049201Y-2985211D02*
G01*
X12049201Y-3048965D01*
X12079173Y-2953461D02*
G01*
X12079173Y-3048965D01*
X12122861Y-2953461D02*
G01*
X12122861Y-3030677D01*
X12127433Y-3044393D01*
X12136577Y-3048965D01*
X12145721Y-3048965D01*
X12109399Y-2985211D02*
G01*
X12141149Y-2985211D01*
X12180265Y-2985211D02*
G01*
X12207443Y-3048965D01*
X12234621Y-2985211D02*
G01*
X12207443Y-3048965D01*
X12198299Y-3066999D01*
X12189155Y-3076143D01*
X12180265Y-3080715D01*
X12175693Y-3080715D01*
X12371019Y-2953461D02*
G01*
X12334697Y-3048965D01*
X12371019Y-2953461D02*
G01*
X12407341Y-3048965D01*
X12348413Y-3016961D02*
G01*
X12393879Y-3016961D01*
X12491923Y-2998927D02*
G01*
X12483033Y-2989783D01*
X12473889Y-2985211D01*
X12460173Y-2985211D01*
X12451029Y-2989783D01*
X12441885Y-2998927D01*
X12437567Y-3012389D01*
X12437567Y-3021533D01*
X12441885Y-3035249D01*
X12451029Y-3044393D01*
X12460173Y-3048965D01*
X12473889Y-3048965D01*
X12483033Y-3044393D01*
X12491923Y-3035249D01*
X12576505Y-2998927D02*
G01*
X12567361Y-2989783D01*
X12558471Y-2985211D01*
X12544755Y-2985211D01*
X12535611Y-2989783D01*
X12526467Y-2998927D01*
X12521895Y-3012389D01*
X12521895Y-3021533D01*
X12526467Y-3035249D01*
X12535611Y-3044393D01*
X12544755Y-3048965D01*
X12558471Y-3048965D01*
X12567361Y-3044393D01*
X12576505Y-3035249D01*
X12606477Y-3012389D02*
G01*
X12661087Y-3012389D01*
X12661087Y-3003499D01*
X12656515Y-2994355D01*
X12651943Y-2989783D01*
X12642799Y-2985211D01*
X12629337Y-2985211D01*
X12620193Y-2989783D01*
X12611049Y-2998927D01*
X12606477Y-3012389D01*
X12606477Y-3021533D01*
X12611049Y-3035249D01*
X12620193Y-3044393D01*
X12629337Y-3048965D01*
X12642799Y-3048965D01*
X12651943Y-3044393D01*
X12661087Y-3035249D01*
X12741097Y-2998927D02*
G01*
X12736525Y-2989783D01*
X12722809Y-2985211D01*
X12709347Y-2985211D01*
X12695631Y-2989783D01*
X12691059Y-2998927D01*
X12695631Y-3007817D01*
X12704775Y-3012389D01*
X12727381Y-3016961D01*
X12736525Y-3021533D01*
X12741097Y-3030677D01*
X12741097Y-3035249D01*
X12736525Y-3044393D01*
X12722809Y-3048965D01*
X12709347Y-3048965D01*
X12695631Y-3044393D01*
X12691059Y-3035249D01*
X12821107Y-2998927D02*
G01*
X12816535Y-2989783D01*
X12802819Y-2985211D01*
X12789357Y-2985211D01*
X12775641Y-2989783D01*
X12771069Y-2998927D01*
X12775641Y-3007817D01*
X12784785Y-3012389D01*
X12807391Y-3016961D01*
X12816535Y-3021533D01*
X12821107Y-3030677D01*
X12821107Y-3035249D01*
X12816535Y-3044393D01*
X12802819Y-3048965D01*
X12789357Y-3048965D01*
X12775641Y-3044393D01*
X12771069Y-3035249D01*
X12989255Y-2976067D02*
G01*
X12984683Y-2966923D01*
X12975539Y-2958033D01*
X12966649Y-2953461D01*
X12948361Y-2953461D01*
X12939217Y-2958033D01*
X12930073Y-2966923D01*
X12925755Y-2976067D01*
X12921183Y-2989783D01*
X12921183Y-3012389D01*
X12925755Y-3026105D01*
X12930073Y-3035249D01*
X12939217Y-3044393D01*
X12948361Y-3048965D01*
X12966649Y-3048965D01*
X12975539Y-3044393D01*
X12984683Y-3035249D01*
X12989255Y-3026105D01*
X13042087Y-2985211D02*
G01*
X13032943Y-2989783D01*
X13023799Y-2998927D01*
X13019227Y-3012389D01*
X13019227Y-3021533D01*
X13023799Y-3035249D01*
X13032943Y-3044393D01*
X13042087Y-3048965D01*
X13055549Y-3048965D01*
X13064693Y-3044393D01*
X13073837Y-3035249D01*
X13078409Y-3021533D01*
X13078409Y-3012389D01*
X13073837Y-2998927D01*
X13064693Y-2989783D01*
X13055549Y-2985211D01*
X13042087Y-2985211D01*
X13108381Y-2985211D02*
G01*
X13108381Y-3048965D01*
X13108381Y-3003499D02*
G01*
X13122097Y-2989783D01*
X13130987Y-2985211D01*
X13144703Y-2985211D01*
X13153847Y-2989783D01*
X13158419Y-3003499D01*
X13158419Y-3048965D01*
X13202107Y-2953461D02*
G01*
X13202107Y-3030677D01*
X13206425Y-3044393D01*
X13215569Y-3048965D01*
X13224713Y-3048965D01*
X13188391Y-2985211D02*
G01*
X13220141Y-2985211D01*
X13254685Y-2985211D02*
G01*
X13254685Y-3048965D01*
X13254685Y-3012389D02*
G01*
X13259257Y-2998927D01*
X13268401Y-2989783D01*
X13277545Y-2985211D01*
X13291007Y-2985211D01*
X13343839Y-2985211D02*
G01*
X13334695Y-2989783D01*
X13325551Y-2998927D01*
X13320979Y-3012389D01*
X13320979Y-3021533D01*
X13325551Y-3035249D01*
X13334695Y-3044393D01*
X13343839Y-3048965D01*
X13357555Y-3048965D01*
X13366445Y-3044393D01*
X13375589Y-3035249D01*
X13380161Y-3021533D01*
X13380161Y-3012389D01*
X13375589Y-2998927D01*
X13366445Y-2989783D01*
X13357555Y-2985211D01*
X13343839Y-2985211D01*
X13410133Y-2953461D02*
G01*
X13410133Y-3048965D01*
X13573709Y-2966923D02*
G01*
X13564819Y-2958033D01*
X13551103Y-2953461D01*
X13532815Y-2953461D01*
X13519353Y-2958033D01*
X13510209Y-2966923D01*
X13510209Y-2976067D01*
X13514781Y-2985211D01*
X13519353Y-2989783D01*
X13528243Y-2994355D01*
X13555675Y-3003499D01*
X13564819Y-3007817D01*
X13569391Y-3012389D01*
X13573709Y-3021533D01*
X13573709Y-3035249D01*
X13564819Y-3044393D01*
X13551103Y-3048965D01*
X13532815Y-3048965D01*
X13519353Y-3044393D01*
X13510209Y-3035249D01*
X13608253Y-2985211D02*
G01*
X13635685Y-3048965D01*
X13662863Y-2985211D02*
G01*
X13635685Y-3048965D01*
X13626541Y-3066999D01*
X13617397Y-3076143D01*
X13608253Y-3080715D01*
X13603935Y-3080715D01*
X13742873Y-2998927D02*
G01*
X13738301Y-2989783D01*
X13724839Y-2985211D01*
X13711123Y-2985211D01*
X13697407Y-2989783D01*
X13692835Y-2998927D01*
X13697407Y-3007817D01*
X13706551Y-3012389D01*
X13729157Y-3016961D01*
X13738301Y-3021533D01*
X13742873Y-3030677D01*
X13742873Y-3035249D01*
X13738301Y-3044393D01*
X13724839Y-3048965D01*
X13711123Y-3048965D01*
X13697407Y-3044393D01*
X13692835Y-3035249D01*
X13786561Y-2953461D02*
G01*
X13786561Y-3030677D01*
X13791133Y-3044393D01*
X13800277Y-3048965D01*
X13809167Y-3048965D01*
X13772845Y-2985211D02*
G01*
X13804849Y-2985211D01*
X13839393Y-3012389D02*
G01*
X13893749Y-3012389D01*
X13893749Y-3003499D01*
X13889177Y-2994355D01*
X13884605Y-2989783D01*
X13875715Y-2985211D01*
X13861999Y-2985211D01*
X13852855Y-2989783D01*
X13843711Y-2998927D01*
X13839393Y-3012389D01*
X13839393Y-3021533D01*
X13843711Y-3035249D01*
X13852855Y-3044393D01*
X13861999Y-3048965D01*
X13875715Y-3048965D01*
X13884605Y-3044393D01*
X13893749Y-3035249D01*
X13923721Y-2985211D02*
G01*
X13923721Y-3048965D01*
X13923721Y-3003499D02*
G01*
X13937437Y-2989783D01*
X13946581Y-2985211D01*
X13960297Y-2985211D01*
X13969187Y-2989783D01*
X13973759Y-3003499D01*
X13973759Y-3048965D01*
X13973759Y-3003499D02*
G01*
X13987475Y-2989783D01*
X13996619Y-2985211D01*
X14010081Y-2985211D01*
X14019225Y-2989783D01*
X14023797Y-3003499D01*
X14023797Y-3048965D01*
X14123873Y-3007817D02*
G01*
X14205661Y-3007817D01*
X14305737Y-2953461D02*
G01*
X14305737Y-3048965D01*
X14305737Y-2953461D02*
G01*
X14346631Y-2953461D01*
X14360093Y-2958033D01*
X14364665Y-2962605D01*
X14369237Y-2971495D01*
X14369237Y-2985211D01*
X14364665Y-2994355D01*
X14360093Y-2998927D01*
X14346631Y-3003499D01*
X14305737Y-3003499D01*
X14399209Y-2953461D02*
G01*
X14399209Y-3048965D01*
X14399209Y-3003499D02*
G01*
X14412925Y-2989783D01*
X14422069Y-2985211D01*
X14435531Y-2985211D01*
X14444675Y-2989783D01*
X14449247Y-3003499D01*
X14449247Y-3048965D01*
X14533829Y-2985211D02*
G01*
X14533829Y-3048965D01*
X14533829Y-2998927D02*
G01*
X14524685Y-2989783D01*
X14515541Y-2985211D01*
X14502079Y-2985211D01*
X14492935Y-2989783D01*
X14483791Y-2998927D01*
X14479219Y-3012389D01*
X14479219Y-3021533D01*
X14483791Y-3035249D01*
X14492935Y-3044393D01*
X14502079Y-3048965D01*
X14515541Y-3048965D01*
X14524685Y-3044393D01*
X14533829Y-3035249D01*
X14613839Y-2998927D02*
G01*
X14609267Y-2989783D01*
X14595551Y-2985211D01*
X14582089Y-2985211D01*
X14568373Y-2989783D01*
X14563801Y-2998927D01*
X14568373Y-3007817D01*
X14577517Y-3012389D01*
X14600123Y-3016961D01*
X14609267Y-3021533D01*
X14613839Y-3030677D01*
X14613839Y-3035249D01*
X14609267Y-3044393D01*
X14595551Y-3048965D01*
X14582089Y-3048965D01*
X14568373Y-3044393D01*
X14563801Y-3035249D01*
X14643811Y-3012389D02*
G01*
X14698421Y-3012389D01*
X14698421Y-3003499D01*
X14693849Y-2994355D01*
X14689277Y-2989783D01*
X14680133Y-2985211D01*
X14666671Y-2985211D01*
X14657527Y-2989783D01*
X14648383Y-2998927D01*
X14643811Y-3012389D01*
X14643811Y-3021533D01*
X14648383Y-3035249D01*
X14657527Y-3044393D01*
X14666671Y-3048965D01*
X14680133Y-3048965D01*
X14689277Y-3044393D01*
X14698421Y-3035249D01*
X14825675Y-2953461D02*
G01*
X14811959Y-2958033D01*
X14802815Y-2971495D01*
X14798243Y-2994355D01*
X14798243Y-3007817D01*
X14802815Y-3030677D01*
X14811959Y-3044393D01*
X14825675Y-3048965D01*
X14834819Y-3048965D01*
X14848281Y-3044393D01*
X14857425Y-3030677D01*
X14861997Y-3007817D01*
X14861997Y-2994355D01*
X14857425Y-2971495D01*
X14848281Y-2958033D01*
X14834819Y-2953461D01*
X14825675Y-2953461D01*
X14891969Y-2971495D02*
G01*
X14901113Y-2966923D01*
X14914829Y-2953461D01*
X14914829Y-3048965D01*
X11728399Y-3156661D02*
G01*
X11764721Y-3252165D01*
X11801043Y-3156661D02*
G01*
X11764721Y-3252165D01*
X11901119Y-3174695D02*
G01*
X11910263Y-3170123D01*
X11923979Y-3156661D01*
X11923979Y-3252165D01*
X11958523Y-3229305D02*
G01*
X11953951Y-3233877D01*
X11958523Y-3238449D01*
X11962841Y-3233877D01*
X11958523Y-3229305D01*
X12020245Y-3156661D02*
G01*
X12006529Y-3161233D01*
X11997385Y-3174695D01*
X11993067Y-3197555D01*
X11993067Y-3211017D01*
X11997385Y-3233877D01*
X12006529Y-3247593D01*
X12020245Y-3252165D01*
X12029389Y-3252165D01*
X12042851Y-3247593D01*
X12051995Y-3233877D01*
X12056567Y-3211017D01*
X12056567Y-3197555D01*
X12051995Y-3174695D01*
X12042851Y-3161233D01*
X12029389Y-3156661D01*
X12020245Y-3156661D01*
X12161215Y-3179267D02*
G01*
X12161215Y-3174695D01*
X12165787Y-3165805D01*
X12170105Y-3161233D01*
X12179249Y-3156661D01*
X12197537Y-3156661D01*
X12206681Y-3161233D01*
X12210999Y-3165805D01*
X12215571Y-3174695D01*
X12215571Y-3183839D01*
X12210999Y-3192983D01*
X12202109Y-3206699D01*
X12156643Y-3252165D01*
X12220143Y-3252165D01*
X12277547Y-3156661D02*
G01*
X12263831Y-3161233D01*
X12254687Y-3174695D01*
X12250115Y-3197555D01*
X12250115Y-3211017D01*
X12254687Y-3233877D01*
X12263831Y-3247593D01*
X12277547Y-3252165D01*
X12286691Y-3252165D01*
X12300153Y-3247593D01*
X12309297Y-3233877D01*
X12313869Y-3211017D01*
X12313869Y-3197555D01*
X12309297Y-3174695D01*
X12300153Y-3161233D01*
X12286691Y-3156661D01*
X12277547Y-3156661D01*
X12348413Y-3179267D02*
G01*
X12348413Y-3174695D01*
X12352985Y-3165805D01*
X12357557Y-3161233D01*
X12366701Y-3156661D01*
X12384735Y-3156661D01*
X12393879Y-3161233D01*
X12398451Y-3165805D01*
X12403023Y-3174695D01*
X12403023Y-3183839D01*
X12398451Y-3192983D01*
X12389307Y-3206699D01*
X12343841Y-3252165D01*
X12407595Y-3252165D01*
X12446457Y-3156661D02*
G01*
X12496495Y-3156661D01*
X12469317Y-3192983D01*
X12483033Y-3192983D01*
X12491923Y-3197555D01*
X12496495Y-3202127D01*
X12501067Y-3215589D01*
X12501067Y-3224733D01*
X12496495Y-3238449D01*
X12487605Y-3247593D01*
X12473889Y-3252165D01*
X12460173Y-3252165D01*
X12446457Y-3247593D01*
X12442139Y-3243021D01*
X12437567Y-3233877D01*
D11*
X10782198Y2641701D02*
G01*
X6997598Y2641701D01*
X6260998Y3378301D01*
X2920898Y3365601D01*
X12575009Y1569189D02*
G01*
X13035815Y1569189D01*
X14442292Y162720D01*
X14442292Y-2053714D01*
X14442292Y-2553690D02*
G01*
X13614298Y-1725703D01*
X13614298Y216001D01*
X12953898Y876401D01*
X12916593Y839088D01*
X12575009Y839088D01*
D12*
X8026298Y-2679598D02*
G01*
X6121501Y-2679598D01*
X5803900Y-2997200D01*
X2667000Y-2997200D01*
X2146300Y-2476500D01*
X2146300Y190500D01*
X2273300Y317500D01*
X3149600Y317500D01*
X3289300Y177800D01*
X3289300Y-76200D01*
X3301898Y-88798D01*
D11*
X7886598Y-1676298D02*
G01*
X9804298Y-1676298D01*
X10363098Y-1117498D01*
X10756798Y-1117498D01*
X10896498Y-977798D01*
D12*
X9741156Y2095599D02*
G01*
X9417433Y2419322D01*
X6984367Y2419322D01*
X6808116Y2595572D01*
X3166874Y2595572D01*
X3022500Y2451199D01*
X9893200Y2095599D02*
G01*
X9741156Y2095599D01*
X9893200Y825599D02*
G01*
X10024391Y694408D01*
X10024391Y245107D01*
X9959113Y179829D01*
X7819621Y179829D01*
X5802302Y2197148D01*
X4546551Y2197148D01*
X4292500Y2451199D01*
X9893200Y317599D02*
G01*
X7901434Y2309365D01*
X4942334Y2309365D01*
X4800500Y2451199D01*
D11*
X6870598Y4178401D02*
G01*
X6870598Y3632301D01*
X6883298Y3619601D01*
X7124598Y4178401D02*
G01*
X7124598Y4013301D01*
X7518298Y3619601D01*
X3974998Y4216501D02*
G01*
X3974998Y5067401D01*
X7124598Y4178401D02*
G01*
X7124598Y5067401D01*
X2539898Y-88798D02*
G01*
X2539898Y-1066698D01*
X3441598Y-1968398D01*
X3809898Y-1498498D02*
G01*
X3225698Y-1498498D01*
X3225698Y-1473098D01*
X2793898Y-1041298D01*
X2793898Y-88798D01*
X3809898Y-1498498D02*
G01*
X4190898Y-1498498D01*
X4368698Y-1676298D01*
X3555898Y3645001D02*
G01*
X3555898Y3378301D01*
D12*
X5079898Y-88798D02*
G01*
X4375482Y615617D01*
X3023565Y615617D01*
X2460475Y1178707D01*
X5841898Y-88798D02*
G01*
X5992822Y-239730D01*
X9654268Y-239730D01*
X3047898Y-88798D02*
G01*
X3657498Y-698398D01*
X3657498Y-711098D01*
X5219598Y-2641498D02*
G01*
X4813198Y-2235098D01*
X3459309Y-2235098D01*
X2640408Y-1416204D01*
X4559198Y-2336698D02*
G01*
X4660798Y-2336698D01*
X4965598Y-2641498D01*
X12031835Y-2098220D02*
G01*
X10700740Y-2098220D01*
X10559094Y-2239873D01*
X6031791Y-2239873D01*
X5357401Y2058311D02*
G01*
X2515392Y2058311D01*
X9702698Y-977798D02*
G01*
X5206898Y-977798D01*
X4317898Y-88798D01*
D11*
X2920898Y3365601D02*
G01*
X2781198Y3200501D01*
X2768498Y2451201D01*
X6260998Y3378301D02*
G01*
X6616598Y3378301D01*
X6883298Y3619601D01*
D12*
X12115698Y-2387498D02*
G01*
X11949844Y-2221636D01*
X10965083Y-2221636D01*
X10850016Y-2336698D01*
X6248298Y-2336698D01*
X5714898Y-2870098D01*
X5194198Y-2870098D01*
X4965598Y-2641498D01*
D11*
X1981098Y2984601D02*
G01*
X1981098Y-2565298D01*
X2597099Y-3181299D01*
X11080600Y-3181299D01*
X11340998Y-2920898D01*
X11340998Y-2400198D01*
X11353698Y-2387498D01*
X9042298Y-2679598D02*
G01*
X9042298Y-3181299D01*
X8146999Y-1962099D02*
G01*
X8146999Y-1936699D01*
X7905699Y-1682699D01*
X4076598Y-1968398D02*
G01*
X4368698Y-1676298D01*
X7886598Y-1676298D01*
X7886598Y-1663598D01*
X11582298Y2756001D02*
G01*
X11233099Y2406799D01*
X11233099Y806495D01*
X11528597Y510997D01*
X12575009Y510997D01*
X14897100Y3302000D02*
G01*
X14897100Y2921101D01*
X14897100Y2921101D02*
G01*
X14789099Y2775000D01*
X11582349Y2755950D01*
X10896498Y-977798D02*
G01*
X10896498Y2527401D01*
X10782198Y2641701D01*
X10714012Y2641701D01*
X10947298Y3302000D02*
G01*
X10242499Y3308400D01*
X8839149Y5067350D01*
X2539949Y5067350D01*
X2311349Y4838750D01*
X2311349Y4813350D01*
X1981149Y4483150D01*
X1981149Y2984550D01*
X2514549Y2451150D01*
X10947298Y5016601D02*
G01*
X10947298Y4978501D01*
X11626799Y4299000D01*
X11626799Y3257600D01*
X10896549Y2527350D01*
X12574983Y1889051D02*
G01*
X11649148Y1889051D01*
X11417249Y2120950D01*
X11417249Y2349550D01*
X11645849Y2578150D01*
X14916099Y2584500D01*
X15258999Y3016300D02*
G01*
X15246299Y4807000D01*
X15036749Y5016550D01*
X14897049Y5016550D01*
X15258999Y3016300D02*
G01*
X15258999Y2927400D01*
X14916099Y2584500D01*
D12*
X12042599Y-533349D02*
G01*
X11861749Y-533349D01*
X11537899Y-526999D01*
X11118799Y-742899D01*
X11106099Y-1530299D01*
X10245549Y-2149548D01*
X5606999Y-2149548D01*
X5425899Y-1968449D01*
D13*
G01*
X12575006Y1569186D03*
G01*
X12575006Y839088D03*
D14*
G01*
X10947298Y5016601D03*
G01*
X14897100Y5016601D03*
G01*
X10947298Y3302000D03*
G01*
X14897100Y3302000D03*
D15*
G01*
X6870598Y4178401D03*
D16*
G01*
X7124598Y4178401D03*
G01*
X7378598Y4178401D03*
G01*
X7632598Y4178401D03*
D17*
G01*
X2539898Y-88798D03*
G01*
X2793898Y-88798D03*
G01*
X3047898Y-88798D03*
G01*
X3301898Y-88798D03*
G01*
X3555898Y-88798D03*
G01*
X4825898Y-88798D03*
G01*
X4571898Y-88798D03*
G01*
X4317898Y-88798D03*
G01*
X4063898Y-88798D03*
G01*
X3809898Y-88798D03*
G01*
X6095898Y-88798D03*
G01*
X5841898Y-88798D03*
G01*
X5587898Y-88798D03*
G01*
X5333898Y-88798D03*
G01*
X5079898Y-88798D03*
G01*
X5054498Y2451201D03*
G01*
X5308498Y2451201D03*
G01*
X5562498Y2451201D03*
G01*
X5816498Y2451201D03*
G01*
X6070498Y2451201D03*
G01*
X3784498Y2451201D03*
G01*
X4038498Y2451201D03*
G01*
X4292498Y2451201D03*
G01*
X4546498Y2451201D03*
G01*
X4800498Y2451201D03*
G01*
X3530498Y2451201D03*
G01*
X3276498Y2451201D03*
G01*
X3022498Y2451201D03*
G01*
X2768498Y2451201D03*
G01*
X2514498Y2451201D03*
D18*
G01*
X9893198Y2095601D03*
D19*
G01*
X9893198Y1841601D03*
G01*
X9893198Y1587601D03*
G01*
X9893198Y1333601D03*
G01*
X9893198Y1079601D03*
G01*
X9893198Y825601D03*
G01*
X9893198Y571601D03*
G01*
X9893198Y317601D03*
D20*
G01*
X8026298Y-2679598D03*
G01*
X8280298Y-2679598D03*
D16*
G01*
X8534298Y-2679598D03*
G01*
X8788298Y-2679598D03*
G01*
X9042298Y-2679598D03*
D13*
G01*
X12575006Y1889099D03*
G01*
X14845004Y1891004D03*
G01*
X12575006Y510997D03*
G01*
X14845004Y512902D03*
D18*
G01*
X3441598Y-2641498D03*
D19*
G01*
X3695598Y-2641498D03*
G01*
X3949598Y-2641498D03*
G01*
X4203598Y-2641498D03*
G01*
X4457598Y-2641498D03*
G01*
X4711598Y-2641498D03*
G01*
X4965598Y-2641498D03*
G01*
X5219598Y-2641498D03*
D21*
G01*
X14442287Y-2553690D03*
G01*
X14442287Y-2053691D03*
D16*
G01*
X3555898Y3645001D03*
G01*
X4190898Y3645001D03*
G01*
X7518298Y3619601D03*
G01*
X6883298Y3619601D03*
G01*
X3441598Y-1968398D03*
G01*
X4076598Y-1968398D03*
G01*
X8146999Y-1962099D03*
G01*
X8781999Y-1962099D03*
D22*
G01*
X12042698Y-533298D03*
G01*
X12442697Y-533298D03*
G01*
X5425998Y-1968398D03*
G01*
X5825997Y-1968398D03*
D16*
G01*
X11531498Y-977798D03*
G01*
X10896498Y-977798D03*
D23*
G01*
X3060598Y1117701D03*
D24*
G01*
X3060598Y1371701D03*
D23*
G01*
X1460398Y-1866798D03*
D24*
G01*
X1460398Y-1612798D03*
D15*
G01*
X3721100Y4216400D03*
D16*
G01*
X3975100Y4216400D03*
G01*
X4229100Y4216400D03*
G01*
X4483100Y4216400D03*
D23*
G01*
X1460500Y3733800D03*
D24*
G01*
X1460500Y3987800D03*
D22*
G01*
X11099800Y-2387600D03*
G01*
X11353800Y-2387600D03*
G01*
X11607800Y-2387600D03*
G01*
X11861800Y-2387600D03*
G01*
X12115800Y-2387600D03*
G01*
X12369800Y-2387600D03*
D15*
G01*
X3974998Y4216501D03*
D24*
G01*
X10947349Y5016550D03*
G01*
X10947298Y3302000D03*
G01*
X14897100Y5016601D03*
G01*
X14897100Y3302000D03*
D25*
G01*
X2460472Y1178712D03*
G01*
X9654260Y-239725D03*
G01*
X3657498Y-711098D03*
G01*
X2640406Y-1416202D03*
G01*
X4559198Y-2336698D03*
G01*
X9702698Y-977798D03*
G01*
X6031788Y-2239873D03*
G01*
X12031827Y-2098217D03*
G01*
X2515387Y2058314D03*
G01*
X5357393Y2058314D03*
M02*
